<svg width="127" height="127" viewBox="0 0 127 127" fill="none" xmlns="http://www.w3.org/2000/svg">
<path fill-rule="evenodd" clip-rule="evenodd" d="M77.8781 104.4V104.504L77.8261 119.155C77.8261 119.311 77.7222 119.519 77.5664 119.623L64.8898 126.948C64.8378 127 64.7339 127 64.63 127C64.578 127 64.4741 127 64.3702 126.948L51.6936 119.623C51.5377 119.519 51.4338 119.363 51.4338 119.155V104.504C51.4338 104.348 51.5377 104.141 51.6936 104.037L64.3702 96.7112C64.578 96.6073 64.7858 96.6073 64.9417 96.7112L77.6183 104.037C77.6443 104.037 77.6573 104.05 77.6703 104.063C77.6833 104.076 77.6963 104.089 77.7222 104.089L77.7742 104.141C77.7742 104.166 77.7872 104.179 77.8002 104.192C77.8131 104.205 77.8261 104.218 77.8261 104.244V104.296C77.8781 104.348 77.8781 104.348 77.8781 104.4ZM76.1636 104.504L64.63 97.8541L52.9405 104.608L64.578 110.635L76.1636 104.504ZM52.5248 105.647L64.0585 111.674C64.0585 111.674 64.0585 111.726 64.1104 111.726V125.545L52.5248 118.843V105.647ZM65.2534 111.57V125.493L76.7871 118.843V105.439L65.2534 111.57Z" fill="#CD097F"/>
<path fill-rule="evenodd" clip-rule="evenodd" d="M116.843 63.8766V63.9806L116.791 78.6314C116.791 78.7873 116.687 78.9951 116.531 79.099L103.855 86.4244C103.803 86.4764 103.699 86.4764 103.595 86.4764C103.543 86.4764 103.439 86.4764 103.335 86.4244L90.6586 79.099C90.5028 78.9951 90.3989 78.8392 90.3989 78.6314V63.9806C90.3989 63.8247 90.5028 63.6169 90.6586 63.513L103.335 56.1875C103.543 56.0836 103.751 56.0836 103.907 56.1875L116.583 63.513C116.609 63.513 116.622 63.526 116.635 63.539C116.648 63.5519 116.661 63.5649 116.687 63.5649L116.739 63.6169C116.739 63.6429 116.752 63.6558 116.765 63.6688C116.778 63.6818 116.791 63.6948 116.791 63.7208V63.7727C116.843 63.8247 116.843 63.8247 116.843 63.8766ZM115.129 63.9806L103.595 57.3305L91.9056 64.0845L103.543 70.1111L115.129 63.9806ZM91.4899 65.1235L103.024 71.1501C103.024 71.1501 103.024 71.2021 103.076 71.2021V85.0217L91.4899 78.3197V65.1235ZM104.218 71.0462V84.9697L115.752 78.3197V64.9157L104.218 71.0462Z" fill="#CD097F"/>
<path fill-rule="evenodd" clip-rule="evenodd" d="M126.195 7.76703V7.87094L126.143 22.5218C126.143 22.6776 126.039 22.8855 125.883 22.9894L113.206 30.3148C113.154 30.3667 113.051 30.3667 112.947 30.3667C112.895 30.3667 112.791 30.3667 112.687 30.3148L100.01 22.9894C99.8544 22.8855 99.7505 22.7296 99.7505 22.5218V7.87094C99.7505 7.71508 99.8544 7.50726 100.01 7.40336L112.687 0.0779301C112.895 -0.0259767 113.102 -0.0259767 113.258 0.0779301L125.935 7.40336C125.961 7.40336 125.974 7.41634 125.987 7.42933C126 7.44232 126.013 7.45531 126.039 7.45531L126.091 7.50726C126.091 7.53324 126.104 7.54623 126.117 7.55922C126.13 7.5722 126.143 7.58519 126.143 7.61117V7.66312C126.195 7.71508 126.195 7.71508 126.195 7.76703ZM124.48 7.87094L112.947 1.22091L101.257 7.97484L112.895 14.0014L124.48 7.87094ZM100.841 9.01391L112.375 15.0405C112.375 15.0405 112.375 15.0925 112.427 15.0925V28.9121L100.841 22.2101V9.01391ZM113.57 14.9366V28.8601L125.104 22.2101V8.80609L113.57 14.9366Z" fill="#CD097F"/>
<path fill-rule="evenodd" clip-rule="evenodd" d="M26.4443 10.8842V10.9881L26.3923 25.639C26.3923 25.7948 26.2884 26.0026 26.1325 26.1066L13.4559 33.432C13.404 33.4839 13.3001 33.4839 13.1962 33.4839C13.1442 33.4839 13.0403 33.4839 12.9364 33.432L0.259767 26.1066C0.103907 26.0026 0 25.8468 0 25.639V10.9881C0 10.8323 0.103907 10.6244 0.259767 10.5205L12.9364 3.19512C13.1442 3.09121 13.352 3.09121 13.5079 3.19512L26.1845 10.5205C26.2105 10.5205 26.2235 10.5335 26.2365 10.5465C26.2494 10.5595 26.2624 10.5725 26.2884 10.5725L26.3404 10.6244C26.3404 10.6504 26.3533 10.6634 26.3663 10.6764C26.3793 10.6894 26.3923 10.7024 26.3923 10.7284V10.7803C26.4443 10.8323 26.4443 10.8323 26.4443 10.8842ZM24.7298 10.9881L13.1962 4.33809L1.50666 11.092L13.1442 17.1186L24.7298 10.9881ZM1.09101 12.1311L12.6247 18.1577C12.6247 18.1577 12.6247 18.2096 12.6766 18.2096V32.0292L1.09101 25.3273V12.1311ZM13.8196 18.0538V31.9773L25.3532 25.3272V11.9233L13.8196 18.0538Z" fill="#CD097F"/>
<path fill-rule="evenodd" clip-rule="evenodd" d="M36.3154 63.8766V63.9806L36.2634 78.6314C36.2634 78.7873 36.1595 78.9951 36.0037 79.099L23.3271 86.4244C23.2751 86.4764 23.1712 86.4764 23.0673 86.4764C23.0153 86.4764 22.9114 86.4764 22.8075 86.4244L10.1309 79.099C9.97505 78.9951 9.87114 78.8392 9.87114 78.6314V63.9806C9.87114 63.8247 9.97505 63.6169 10.1309 63.513L22.8075 56.1875C23.0153 56.0836 23.2232 56.0836 23.379 56.1875L36.0556 63.513C36.0816 63.513 36.0946 63.526 36.1076 63.539C36.1206 63.5519 36.1336 63.5649 36.1595 63.5649L36.2115 63.6169C36.2115 63.6429 36.2245 63.6558 36.2375 63.6688C36.2505 63.6818 36.2634 63.6948 36.2634 63.7208V63.7727C36.3154 63.8247 36.3154 63.8247 36.3154 63.8766ZM34.6009 63.9806L23.0673 57.3305L11.3778 64.0845L23.0153 70.1111L34.6009 63.9806ZM10.9621 65.1235L22.4958 71.1501C22.4958 71.1501 22.4958 71.2021 22.5477 71.2021V85.0217L10.9621 78.3197V65.1235ZM23.6907 71.0462V84.9697L35.2244 78.3197V64.9157L23.6907 71.0462Z" fill="#CD097F"/>
<path fill-rule="evenodd" clip-rule="evenodd" d="M77.8781 22.8335V22.9374L77.8261 37.5883C77.8261 37.7441 77.7222 37.9519 77.5664 38.0558L64.8898 45.3813C64.8378 45.4332 64.7339 45.4332 64.63 45.4332C64.578 45.4332 64.4741 45.4332 64.3702 45.3813L51.6936 38.0558C51.5377 37.9519 51.4338 37.7961 51.4338 37.5883V22.9374C51.4338 22.7815 51.5377 22.5737 51.6936 22.4698L64.3702 15.1444C64.578 15.0405 64.7858 15.0405 64.9417 15.1444L77.6183 22.4698C77.6443 22.4698 77.6573 22.4828 77.6703 22.4958C77.6833 22.5088 77.6963 22.5218 77.7222 22.5218L77.7742 22.5737C77.7742 22.5997 77.7872 22.6127 77.8002 22.6257C77.8131 22.6387 77.8261 22.6517 77.8261 22.6776V22.7296C77.8781 22.7815 77.8781 22.7815 77.8781 22.8335ZM76.1636 22.9374L64.63 16.2874L52.9405 23.0413L64.578 29.0679L76.1636 22.9374ZM52.5248 24.0804L64.0585 30.107C64.0585 30.107 64.0585 30.1589 64.1104 30.1589V43.9785L52.5248 37.2765V24.0804ZM65.2534 30.0031V43.9266L76.7871 37.2765V23.8726L65.2534 30.0031Z" fill="#CD097F"/>
<line x1="77.4776" y1="104.733" x2="89.9464" y2="78.2367" stroke="#EDD711"/>
<line x1="102.917" y1="55.9403" x2="112.268" y2="29.9636" stroke="#EDD711"/>
<line x1="50.9992" y1="105.193" x2="35.9327" y2="78.6967" stroke="#FEF62F" stroke-opacity="0.82"/>
<line x1="22.4005" y1="56.8274" x2="12.5293" y2="33.9679" stroke="#FEF62F" stroke-opacity="0.82"/>
<line x1="26.7045" y1="9.93615" x2="51.6422" y2="21.3659" stroke="#FEF62F" stroke-opacity="0.82"/>
<line x1="77.646" y1="23.4871" x2="99.4664" y2="8.42064" stroke="#EDD711"/>
</svg>
